<svg id="visual" viewBox="0 0 900 900" width="900" height="900" xmlns="http://www.w3.org/2000/svg" xmlns:xlink="http://www.w3.org/1999/xlink" version="1.1"><rect x="0" y="0" width="900" height="900" fill="#ffffff"></rect><path d="M87 0L94.8 50C102.7 100 118.3 200 118.3 300C118.3 400 102.7 500 101.8 600C101 700 115 800 122 850L129 900L0 900L0 850C0 800 0 700 0 600C0 500 0 400 0 300C0 200 0 100 0 50L0 0Z" fill="#fa7268"></path><path d="M58 0L59.8 50C61.7 100 65.3 200 68.2 300C71 400 73 500 72.8 600C72.7 700 70.3 800 69.2 850L68 900L0 900L0 850C0 800 0 700 0 600C0 500 0 400 0 300C0 200 0 100 0 50L0 0Z" fill="#e34c67"></path><path d="M36 0L35.5 50C35 100 34 200 33 300C32 400 31 500 32.8 600C34.7 700 39.3 800 41.7 850L44 900L0 900L0 850C0 800 0 700 0 600C0 500 0 400 0 300C0 200 0 100 0 50L0 0Z" fill="#c62368"></path></svg>